<svg width="16" height="16" viewBox="0 0 16 16" fill="none" xmlns="http://www.w3.org/2000/svg">
<path d="M11.2268 0.0104218H4.89814C2.14918 0.0104218 0.510376 1.64922 0.510376 4.39818V10.7193C0.510376 13.4758 2.14918 15.1146 4.89814 15.1146H11.2192C13.9682 15.1146 15.607 13.4758 15.607 10.7268V4.39818C15.6145 1.64922 13.9757 0.0104218 11.2268 0.0104218ZM11.6724 5.82553L7.39032 10.1076C7.28459 10.2133 7.1411 10.2737 6.99006 10.2737C6.83902 10.2737 6.69553 10.2133 6.5898 10.1076L4.45256 7.97032C4.23355 7.75131 4.23355 7.38881 4.45256 7.1698C4.67157 6.95079 5.03407 6.95079 5.25308 7.1698L6.99006 8.90678L10.8718 5.02501C11.0908 4.806 11.4533 4.806 11.6724 5.02501C11.8914 5.24402 11.8914 5.59896 11.6724 5.82553Z" fill="url(#paint0_linear_57_35)"/>
<defs>
<linearGradient id="paint0_linear_57_35" x1="0.510376" y1="7.56251" x2="16" y2="7.56251" gradientUnits="userSpaceOnUse">
<stop stop-color="#1B75C1"/>
<stop offset="1" stop-color="#04C1F6"/>
</linearGradient>
</defs>
</svg>
