<svg width="30" height="44" viewBox="0 0 30 44" fill="none" xmlns="http://www.w3.org/2000/svg">
<path d="M1.92822 33.4927V37H0.902344V29.4321H1.92822V32.6333H6.021V29.4321H7.04688V37H6.021V33.4927H1.92822ZM13.605 34.0889C13.605 35.1058 13.3812 35.8631 12.9336 36.3608C12.486 36.8586 11.8361 37.1074 10.9839 37.1074C10.1353 37.1074 9.4943 36.8496 9.06104 36.334C8.62777 35.8148 8.41113 35.0664 8.41113 34.0889C8.41113 33.0863 8.62777 32.3343 9.06104 31.833C9.49788 31.3317 10.1496 31.0811 11.0161 31.0811C11.9041 31.0811 12.5576 31.3263 12.9766 31.8169C13.3955 32.3039 13.605 33.0612 13.605 34.0889ZM12.5898 34.0889C12.5898 33.2868 12.4699 32.7049 12.23 32.3433C11.9937 31.978 11.5944 31.7954 11.0322 31.7954C10.4665 31.7954 10.0565 31.9816 9.80225 32.354C9.5516 32.7228 9.42627 33.3011 9.42627 34.0889C9.42627 34.8551 9.5498 35.4316 9.79688 35.8184C10.0475 36.2015 10.4396 36.3931 10.9731 36.3931C11.5532 36.3931 11.9668 36.2069 12.2139 35.8345C12.4645 35.4621 12.5898 34.8802 12.5898 34.0889ZM15.7964 33.6323V37H14.835V32.4292C14.835 32.089 14.8314 31.8169 14.8242 31.6128C14.8206 31.4051 14.8135 31.2637 14.8027 31.1885H15.7158C15.723 31.2673 15.7301 31.3639 15.7373 31.4785C15.7445 31.5931 15.7498 31.7131 15.7534 31.8384C15.757 31.9601 15.7588 32.0747 15.7588 32.1821H15.7749C15.9826 31.7703 16.2207 31.4839 16.4893 31.3228C16.7578 31.1616 17.0854 31.0811 17.4722 31.0811C17.9126 31.0811 18.2599 31.1688 18.5142 31.3442C18.772 31.5197 18.951 31.799 19.0513 32.1821H19.0674C19.2679 31.7918 19.5096 31.5107 19.7925 31.3389C20.0789 31.167 20.4245 31.0811 20.8291 31.0811C21.4163 31.0811 21.8424 31.2404 22.1074 31.5591C22.376 31.8778 22.5103 32.4006 22.5103 33.1274V37H21.5542V33.3154C21.5542 32.7533 21.4772 32.3647 21.3232 32.1499C21.1693 31.9351 20.8918 31.8276 20.4907 31.8276C20.0682 31.8276 19.7388 31.9852 19.5024 32.3003C19.2697 32.6118 19.1533 33.0558 19.1533 33.6323V37H18.1973V33.3154C18.1973 32.7533 18.1203 32.3647 17.9663 32.1499C17.8123 31.9351 17.5348 31.8276 17.1338 31.8276C16.722 31.8276 16.3962 31.9852 16.1562 32.3003C15.9163 32.6154 15.7964 33.0594 15.7964 33.6323ZM24.7178 34.2983C24.7178 34.9644 24.8556 35.4782 25.1313 35.8398C25.4071 36.2015 25.8099 36.3823 26.3398 36.3823C26.7588 36.3823 27.0936 36.2982 27.3442 36.1299C27.5985 35.9616 27.7703 35.7485 27.8599 35.4907L28.7085 35.7324C28.3612 36.6491 27.5716 37.1074 26.3398 37.1074C25.4805 37.1074 24.8252 36.8514 24.374 36.3394C23.9264 35.8273 23.7026 35.0664 23.7026 34.0566C23.7026 33.097 23.9264 32.3612 24.374 31.8491C24.8252 31.3371 25.4679 31.0811 26.3022 31.0811C27.158 31.0811 27.799 31.3389 28.2251 31.8545C28.6512 32.3701 28.8643 33.1418 28.8643 34.1694V34.2983H24.7178ZM27.8652 33.5571C27.8115 32.9448 27.6558 32.499 27.3979 32.2197C27.1401 31.9368 26.7695 31.7954 26.2861 31.7954C25.8171 31.7954 25.4447 31.953 25.1689 32.2681C24.8968 32.5796 24.75 33.0093 24.7285 33.5571H27.8652Z" fill="url(#paint0_linear_23_2889)"/>
<path d="M23.04 6.82L17.28 2.79C15.71 1.69 13.3 1.75 11.79 2.92L6.77999 6.83C5.77999 7.61 4.98999 9.21 4.98999 10.47V17.37C4.98999 19.92 7.05999 22 9.60999 22H20.39C22.94 22 25.01 19.93 25.01 17.38V10.6C25.01 9.25 24.14 7.59 23.04 6.82ZM15.75 18C15.75 18.41 15.41 18.75 15 18.75C14.59 18.75 14.25 18.41 14.25 18V15C14.25 14.59 14.59 14.25 15 14.25C15.41 14.25 15.75 14.59 15.75 15V18Z" fill="url(#paint1_linear_23_2889)"/>
<defs>
<linearGradient id="paint0_linear_23_2889" x1="-1.11759e-09" y1="34" x2="30" y2="34" gradientUnits="userSpaceOnUse">
<stop stop-color="#1B75C1"/>
<stop offset="1" stop-color="#04C1F6"/>
</linearGradient>
<linearGradient id="paint1_linear_23_2889" x1="4.98999" y1="12.0011" x2="25.01" y2="12.0011" gradientUnits="userSpaceOnUse">
<stop stop-color="#1B75C1"/>
<stop offset="1" stop-color="#04C1F6"/>
</linearGradient>
</defs>
</svg>
