<svg width="20" height="21" viewBox="0 0 20 21" fill="none" xmlns="http://www.w3.org/2000/svg">
<path d="M15 9.70834C14.6583 9.70834 14.375 9.425 14.375 9.08334V7.41667C14.375 4.79167 13.6333 3.04167 10 3.04167C6.36667 3.04167 5.625 4.79167 5.625 7.41667V9.08334C5.625 9.425 5.34167 9.70834 5 9.70834C4.65833 9.70834 4.375 9.425 4.375 9.08334V7.41667C4.375 5.00001 4.95833 1.79167 10 1.79167C15.0417 1.79167 15.625 5.00001 15.625 7.41667V9.08334C15.625 9.425 15.3417 9.70834 15 9.70834Z" fill="#9CA3AF"/>
<path d="M9.99996 16.7917C8.50829 16.7917 7.29163 15.575 7.29163 14.0833C7.29163 12.5917 8.50829 11.375 9.99996 11.375C11.4916 11.375 12.7083 12.5917 12.7083 14.0833C12.7083 15.575 11.4916 16.7917 9.99996 16.7917ZM9.99996 12.625C9.19996 12.625 8.54163 13.2833 8.54163 14.0833C8.54163 14.8833 9.19996 15.5417 9.99996 15.5417C10.8 15.5417 11.4583 14.8833 11.4583 14.0833C11.4583 13.2833 10.8 12.625 9.99996 12.625Z" fill="#9CA3AF"/>
<path d="M14.1666 19.7083H5.83329C2.15829 19.7083 1.04163 18.5917 1.04163 14.9167V13.25C1.04163 9.575 2.15829 8.45833 5.83329 8.45833H14.1666C17.8416 8.45833 18.9583 9.575 18.9583 13.25V14.9167C18.9583 18.5917 17.8416 19.7083 14.1666 19.7083ZM5.83329 9.70833C2.84996 9.70833 2.29163 10.275 2.29163 13.25V14.9167C2.29163 17.8917 2.84996 18.4583 5.83329 18.4583H14.1666C17.15 18.4583 17.7083 17.8917 17.7083 14.9167V13.25C17.7083 10.275 17.15 9.70833 14.1666 9.70833H5.83329Z" fill="#9CA3AF"/>
</svg>
