<svg width="32" height="44" viewBox="0 0 32 44" fill="none" xmlns="http://www.w3.org/2000/svg">
<path d="M7.15381 31.7095C7.15381 32.1857 7.04818 32.5993 6.83691 32.9502C6.62565 33.3011 6.32487 33.5732 5.93457 33.7666C5.54785 33.9564 5.08594 34.0513 4.54883 34.0513H2.3252V37H1.29932V29.4321H4.48438C5.33301 29.4321 5.99007 29.6309 6.45557 30.0283C6.92106 30.4258 7.15381 30.9862 7.15381 31.7095ZM6.12256 31.7202C6.12256 30.7427 5.53532 30.2539 4.36084 30.2539H2.3252V33.2402H4.40381C4.97673 33.2402 5.40641 33.1149 5.69287 32.8643C5.97933 32.61 6.12256 32.2287 6.12256 31.7202ZM9.46338 33.9707V37H8.49658V32.542C8.49658 32.3379 8.493 32.123 8.48584 31.8975C8.48226 31.6719 8.4751 31.4355 8.46436 31.1885H9.37744C9.3846 31.3532 9.38997 31.5018 9.39355 31.6343C9.40072 31.7668 9.40609 31.8831 9.40967 31.9834C9.41325 32.0801 9.41504 32.1624 9.41504 32.2305C9.41862 32.2949 9.42041 32.3433 9.42041 32.3755H9.44189C9.54932 32.0246 9.66748 31.7524 9.79639 31.5591C9.92171 31.38 10.0649 31.2565 10.2261 31.1885C10.3872 31.1169 10.5859 31.0811 10.8223 31.0811C10.9548 31.0811 11.0854 31.099 11.2144 31.1348V32.021C11.0926 31.9852 10.9207 31.9673 10.6987 31.9673C10.2977 31.9673 9.99154 32.141 9.78027 32.4883C9.56901 32.832 9.46338 33.3262 9.46338 33.9707ZM17.0527 34.0889C17.0527 35.1058 16.8289 35.8631 16.3813 36.3608C15.9338 36.8586 15.2839 37.1074 14.4316 37.1074C13.583 37.1074 12.9421 36.8496 12.5088 36.334C12.0755 35.8148 11.8589 35.0664 11.8589 34.0889C11.8589 33.0863 12.0755 32.3343 12.5088 31.833C12.9456 31.3317 13.5973 31.0811 14.4639 31.0811C15.3519 31.0811 16.0054 31.3263 16.4243 31.8169C16.8433 32.3039 17.0527 33.0612 17.0527 34.0889ZM16.0376 34.0889C16.0376 33.2868 15.9176 32.7049 15.6777 32.3433C15.4414 31.978 15.0422 31.7954 14.48 31.7954C13.9142 31.7954 13.5042 31.9816 13.25 32.354C12.9993 32.7228 12.874 33.3011 12.874 34.0889C12.874 34.8551 12.9976 35.4316 13.2446 35.8184C13.4953 36.2015 13.8874 36.3931 14.4209 36.3931C15.001 36.3931 15.4146 36.2069 15.6616 35.8345C15.9123 35.4621 16.0376 34.8802 16.0376 34.0889ZM19.459 31.8921V37H18.4922V31.8921H17.6758V31.1885H18.4922V30.5332C18.4922 30.0033 18.6086 29.6219 18.8413 29.3892C19.0741 29.1564 19.4303 29.04 19.9102 29.04C20.1787 29.04 20.4061 29.0615 20.5923 29.1045V29.8403C20.4204 29.8117 20.2772 29.7974 20.1626 29.7974C19.9155 29.7974 19.7365 29.86 19.6255 29.9854C19.5145 30.1107 19.459 30.3381 19.459 30.6675V31.1885H20.5923V31.8921H19.459ZM22.2842 29.0293V29.9531H21.3174V29.0293H22.2842ZM22.2842 31.1885V37H21.3174V31.1885H22.2842ZM24.7388 29.0293V37H23.772V29.0293H24.7388ZM26.9624 34.2983C26.9624 34.9644 27.1003 35.4782 27.376 35.8398C27.6517 36.2015 28.0545 36.3823 28.5845 36.3823C29.0034 36.3823 29.3382 36.2982 29.5889 36.1299C29.8431 35.9616 30.015 35.7485 30.1045 35.4907L30.9531 35.7324C30.6058 36.6491 29.8162 37.1074 28.5845 37.1074C27.7251 37.1074 27.0698 36.8514 26.6187 36.3394C26.1711 35.8273 25.9473 35.0664 25.9473 34.0566C25.9473 33.097 26.1711 32.3612 26.6187 31.8491C27.0698 31.3371 27.7126 31.0811 28.5469 31.0811C29.4027 31.0811 30.0436 31.3389 30.4697 31.8545C30.8958 32.3701 31.1089 33.1418 31.1089 34.1694V34.2983H26.9624ZM30.1099 33.5571C30.0562 32.9448 29.9004 32.499 29.6426 32.2197C29.3848 31.9368 29.0142 31.7954 28.5308 31.7954C28.0617 31.7954 27.6893 31.953 27.4136 32.2681C27.1414 32.5796 26.9946 33.0093 26.9731 33.5571H30.1099Z" fill="#6B7280"/>
<path d="M15.12 13.53C15.1 13.53 15.07 13.53 15.05 13.53C15.02 13.53 14.98 13.53 14.95 13.53C12.68 13.46 10.98 11.69 10.98 9.50998C10.98 7.28998 12.79 5.47998 15.01 5.47998C17.23 5.47998 19.04 7.28998 19.04 9.50998C19.03 11.7 17.32 13.46 15.15 13.53C15.13 13.53 15.13 13.53 15.12 13.53ZM15 6.96998C13.6 6.96998 12.47 8.10998 12.47 9.49998C12.47 10.87 13.54 11.98 14.9 12.03C14.93 12.02 15.03 12.02 15.13 12.03C16.47 11.96 17.52 10.86 17.53 9.49998C17.53 8.10998 16.4 6.96998 15 6.96998Z" fill="#6B7280"/>
<path d="M14.9998 22.75C12.3098 22.75 9.73984 21.75 7.74984 19.93C7.56984 19.77 7.48984 19.53 7.50984 19.3C7.63984 18.11 8.37984 17 9.60984 16.18C12.5898 14.2 17.4198 14.2 20.3898 16.18C21.6198 17.01 22.3598 18.11 22.4898 19.3C22.5198 19.54 22.4298 19.77 22.2498 19.93C20.2598 21.75 17.6898 22.75 14.9998 22.75ZM9.07984 19.1C10.7398 20.49 12.8298 21.25 14.9998 21.25C17.1698 21.25 19.2598 20.49 20.9198 19.1C20.7398 18.49 20.2598 17.9 19.5498 17.42C17.0898 15.78 12.9198 15.78 10.4398 17.42C9.72984 17.9 9.25984 18.49 9.07984 19.1Z" fill="#6B7280"/>
<path d="M15 22.75C9.07 22.75 4.25 17.93 4.25 12C4.25 6.07 9.07 1.25 15 1.25C20.93 1.25 25.75 6.07 25.75 12C25.75 17.93 20.93 22.75 15 22.75ZM15 2.75C9.9 2.75 5.75 6.9 5.75 12C5.75 17.1 9.9 21.25 15 21.25C20.1 21.25 24.25 17.1 24.25 12C24.25 6.9 20.1 2.75 15 2.75Z" fill="#6B7280"/>
</svg>
