<svg width="39" height="44" viewBox="0 0 39 44" fill="none" xmlns="http://www.w3.org/2000/svg">
<path d="M2.15674 33.8579V37H1.13086V29.4321H4.69189C5.54411 29.4321 6.20117 29.6237 6.66309 30.0068C7.12858 30.3864 7.36133 30.9163 7.36133 31.5967C7.36133 32.1589 7.19661 32.6315 6.86719 33.0146C6.54134 33.3978 6.09017 33.6395 5.51367 33.7397L7.66211 37H6.48047L4.51465 33.8579H2.15674ZM6.33008 31.6074C6.33008 31.167 6.17969 30.8322 5.87891 30.603C5.58171 30.3703 5.15202 30.2539 4.58984 30.2539H2.15674V33.0469H4.63281C5.1735 33.0469 5.59066 32.9215 5.88428 32.6709C6.18148 32.4167 6.33008 32.0622 6.33008 31.6074ZM9.66016 34.2983C9.66016 34.9644 9.79801 35.4782 10.0737 35.8398C10.3494 36.2015 10.7523 36.3823 11.2822 36.3823C11.7012 36.3823 12.036 36.2982 12.2866 36.1299C12.5409 35.9616 12.7127 35.7485 12.8022 35.4907L13.6509 35.7324C13.3035 36.6491 12.514 37.1074 11.2822 37.1074C10.4229 37.1074 9.76758 36.8514 9.31641 36.3394C8.86882 35.8273 8.64502 35.0664 8.64502 34.0566C8.64502 33.097 8.86882 32.3612 9.31641 31.8491C9.76758 31.3371 10.4103 31.0811 11.2446 31.0811C12.1004 31.0811 12.7414 31.3389 13.1675 31.8545C13.5936 32.3701 13.8066 33.1418 13.8066 34.1694V34.2983H9.66016ZM12.8076 33.5571C12.7539 32.9448 12.5981 32.499 12.3403 32.2197C12.0825 31.9368 11.7119 31.7954 11.2285 31.7954C10.7594 31.7954 10.387 31.953 10.1113 32.2681C9.83919 32.5796 9.69238 33.0093 9.6709 33.5571H12.8076ZM19.9565 34.0674C19.9565 35.0807 19.7775 35.8416 19.4194 36.3501C19.0649 36.855 18.5314 37.1074 17.8188 37.1074C16.9237 37.1074 16.3221 36.7708 16.0142 36.0977H15.9873C16.0016 36.1227 16.0088 36.4271 16.0088 37.0107V39.2827H15.042V32.3755C15.042 32.0783 15.0384 31.8312 15.0312 31.6343C15.0277 31.4338 15.0205 31.2852 15.0098 31.1885H15.9443C15.9479 31.2028 15.9533 31.2726 15.9604 31.3979C15.9712 31.5233 15.9801 31.6593 15.9873 31.8062C15.9945 31.9494 15.998 32.055 15.998 32.123H16.0195C16.1914 31.765 16.4188 31.5036 16.7017 31.3389C16.9845 31.1706 17.3569 31.0864 17.8188 31.0864C18.535 31.0864 19.0703 31.3263 19.4248 31.8062C19.7793 32.286 19.9565 33.0397 19.9565 34.0674ZM18.9414 34.0889C18.9414 33.2796 18.8322 32.7013 18.6138 32.354C18.3953 32.0067 18.048 31.833 17.5718 31.833C17.0418 31.833 16.6479 32.0174 16.3901 32.3862C16.1359 32.7515 16.0088 33.3441 16.0088 34.1641C16.0088 34.9268 16.1305 35.4889 16.374 35.8506C16.6175 36.2122 17.0132 36.3931 17.561 36.3931C18.0409 36.3931 18.39 36.2176 18.6084 35.8667C18.8304 35.5122 18.9414 34.9196 18.9414 34.0889ZM26.0796 34.0889C26.0796 35.1058 25.8558 35.8631 25.4082 36.3608C24.9606 36.8586 24.3107 37.1074 23.4585 37.1074C22.6099 37.1074 21.9689 36.8496 21.5356 36.334C21.1024 35.8148 20.8857 35.0664 20.8857 34.0889C20.8857 33.0863 21.1024 32.3343 21.5356 31.833C21.9725 31.3317 22.6242 31.0811 23.4907 31.0811C24.3787 31.0811 25.0322 31.3263 25.4512 31.8169C25.8701 32.3039 26.0796 33.0612 26.0796 34.0889ZM25.0645 34.0889C25.0645 33.2868 24.9445 32.7049 24.7046 32.3433C24.4683 31.978 24.069 31.7954 23.5068 31.7954C22.9411 31.7954 22.5311 31.9816 22.2769 32.354C22.0262 32.7228 21.9009 33.3011 21.9009 34.0889C21.9009 34.8551 22.0244 35.4316 22.2715 35.8184C22.5221 36.2015 22.9142 36.3931 23.4478 36.3931C24.0278 36.3931 24.4414 36.2069 24.6885 35.8345C24.9391 35.4621 25.0645 34.8802 25.0645 34.0889ZM28.2764 33.9707V37H27.3096V32.542C27.3096 32.3379 27.306 32.123 27.2988 31.8975C27.2952 31.6719 27.2881 31.4355 27.2773 31.1885H28.1904C28.1976 31.3532 28.203 31.5018 28.2065 31.6343C28.2137 31.7668 28.2191 31.8831 28.2227 31.9834C28.2262 32.0801 28.228 32.1624 28.228 32.2305C28.2316 32.2949 28.2334 32.3433 28.2334 32.3755H28.2549C28.3623 32.0246 28.4805 31.7524 28.6094 31.5591C28.7347 31.38 28.8779 31.2565 29.0391 31.1885C29.2002 31.1169 29.3989 31.0811 29.6353 31.0811C29.7677 31.0811 29.8984 31.099 30.0273 31.1348V32.021C29.9056 31.9852 29.7337 31.9673 29.5117 31.9673C29.1107 31.9673 28.8045 32.141 28.5933 32.4883C28.382 32.832 28.2764 33.3262 28.2764 33.9707ZM33.1855 36.957C32.8704 37.043 32.5446 37.0859 32.208 37.0859C31.8213 37.0859 31.5312 36.9767 31.3379 36.7583C31.1445 36.5363 31.0479 36.2069 31.0479 35.77V31.8921H30.3765V31.1885H31.0854L31.3701 29.8887H32.0146V31.1885H33.0889V31.8921H32.0146V35.5605C32.0146 35.8398 32.0594 36.0368 32.1489 36.1514C32.242 36.2624 32.4014 36.3179 32.627 36.3179C32.7487 36.3179 32.9349 36.2928 33.1855 36.2427V36.957ZM38.374 35.394C38.374 35.9419 38.1663 36.3644 37.751 36.6616C37.3392 36.9588 36.7609 37.1074 36.0161 37.1074C35.2928 37.1074 34.7342 36.9893 34.3403 36.7529C33.95 36.513 33.6958 36.1406 33.5776 35.6357L34.4316 35.4692C34.514 35.7808 34.6841 36.0099 34.9419 36.1567C35.1997 36.3 35.5578 36.3716 36.0161 36.3716C36.5067 36.3716 36.8647 36.2964 37.0903 36.146C37.3195 35.9956 37.4341 35.77 37.4341 35.4692C37.4341 35.2401 37.3553 35.0539 37.1978 34.9106C37.0402 34.7674 36.786 34.6493 36.4351 34.5562C36.0197 34.4451 35.6885 34.3538 35.4414 34.2822C35.1979 34.2106 35.0099 34.1497 34.8774 34.0996C34.745 34.0459 34.6393 33.9958 34.5605 33.9492C34.3242 33.8132 34.1398 33.6466 34.0073 33.4497C33.8748 33.2528 33.8086 33.0111 33.8086 32.7246C33.8086 32.1947 33.9966 31.7918 34.3726 31.5161C34.7521 31.2368 35.3035 31.0972 36.0269 31.0972C36.6678 31.0972 37.1763 31.21 37.5522 31.4355C37.9318 31.6611 38.1717 32.0228 38.272 32.5205L37.4019 32.6279C37.3481 32.3701 37.2031 32.1732 36.9668 32.0371C36.734 31.8975 36.4207 31.8276 36.0269 31.8276C35.59 31.8276 35.2677 31.8939 35.0601 32.0264C34.8524 32.1589 34.7485 32.3594 34.7485 32.6279C34.7485 32.8249 34.8076 32.9878 34.9258 33.1167C35.0439 33.242 35.2695 33.3459 35.6025 33.4282C36.0501 33.5356 36.4762 33.6538 36.8809 33.7827C37.2855 33.908 37.5755 34.0334 37.751 34.1587C37.9551 34.3055 38.109 34.4792 38.2129 34.6797C38.3203 34.8766 38.374 35.1147 38.374 35.394Z" fill="url(#paint0_linear_47_4244)"/>
<path d="M23 4.25C23 5.49 21.99 6.5 20.75 6.5H17.25C16.63 6.5 16.07 6.25 15.66 5.84C15.25 5.43 15 4.87 15 4.25C15 3.01 16.01 2 17.25 2H20.75C21.37 2 21.93 2.25 22.34 2.66C22.75 3.07 23 3.63 23 4.25Z" fill="url(#paint1_linear_47_4244)"/>
<path d="M25.83 5.03002C25.6 4.84002 25.34 4.69002 25.06 4.58002C24.77 4.47002 24.48 4.70002 24.42 5.00002C24.08 6.71002 22.57 8.00002 20.75 8.00002H17.25C16.25 8.00002 15.31 7.61002 14.6 6.90002C14.08 6.38002 13.72 5.72002 13.58 5.01002C13.52 4.71002 13.22 4.47002 12.93 4.59002C11.77 5.06002 11 6.12002 11 8.25002V18C11 21 12.79 22 15 22H23C25.21 22 27 21 27 18V8.25002C27 6.62002 26.55 5.62002 25.83 5.03002ZM15 12.25H19C19.41 12.25 19.75 12.59 19.75 13C19.75 13.41 19.41 13.75 19 13.75H15C14.59 13.75 14.25 13.41 14.25 13C14.25 12.59 14.59 12.25 15 12.25ZM23 17.75H15C14.59 17.75 14.25 17.41 14.25 17C14.25 16.59 14.59 16.25 15 16.25H23C23.41 16.25 23.75 16.59 23.75 17C23.75 17.41 23.41 17.75 23 17.75Z" fill="url(#paint2_linear_47_4244)"/>
<defs>
<linearGradient id="paint0_linear_47_4244" x1="-1.45286e-09" y1="34" x2="39" y2="34" gradientUnits="userSpaceOnUse">
<stop stop-color="#1B75C1"/>
<stop offset="1" stop-color="#04C1F6"/>
</linearGradient>
<linearGradient id="paint1_linear_47_4244" x1="15" y1="4.25" x2="23" y2="4.25" gradientUnits="userSpaceOnUse">
<stop stop-color="#1B75C1"/>
<stop offset="1" stop-color="#04C1F6"/>
</linearGradient>
<linearGradient id="paint2_linear_47_4244" x1="11" y1="13.276" x2="27" y2="13.276" gradientUnits="userSpaceOnUse">
<stop stop-color="#1B75C1"/>
<stop offset="1" stop-color="#04C1F6"/>
</linearGradient>
</defs>
</svg>
