<svg width="200" height="200" viewBox="0 0 200 200" fill="none" xmlns="http://www.w3.org/2000/svg">
<circle cx="100" cy="100" r="100" fill="#21252A" fill-opacity="1"/>
<g clip-path="url(#clip0_72_463)">
<path d="M99.2237 54.9149L99.1807 54.9166H99.251L99.2237 54.9149Z" fill="#333333" stroke="white" stroke-width="0.167752" stroke-miterlimit="10"/>
<path d="M151.672 116.09C150.681 118.405 148.473 123.558 148.199 124.199C146.248 128.691 144.251 133.175 142.152 137.641C140.03 142.102 137.811 146.543 135.312 150.952C134.053 153.156 132.703 155.341 131.143 157.522C130.357 158.613 129.509 159.701 128.497 160.793C127.985 161.34 127.435 161.888 126.779 162.435C126.114 162.981 125.362 163.545 124.262 164.049C123.73 164.298 123.054 164.523 122.307 164.661C121.537 164.797 120.65 164.809 119.813 164.657C118.961 164.511 118.234 164.197 117.64 163.865C117.028 163.522 116.61 163.157 116.209 162.795C115.469 162.074 114.988 161.382 114.579 160.719C114.177 160.055 113.858 159.414 113.579 158.782C113.024 157.509 112.615 156.323 112.24 155.053C111.855 153.753 111.628 152.467 111.466 151.201C110.848 146.133 111.228 141.32 111.437 136.575C111.536 134.206 111.644 131.855 111.599 129.527C111.54 127.204 111.345 124.891 110.708 122.695C110.18 120.918 109.348 119.191 107.966 117.82C107.655 117.511 107.319 117.222 106.949 116.952C105.945 116.206 104.749 115.664 103.455 115.284C103.078 115.175 103.219 114.69 103.607 114.752C103.621 114.753 103.635 114.757 103.648 114.759C105.042 114.985 106.435 115.415 107.673 116.104C108.542 116.572 109.33 117.159 110.02 117.82C110.323 118.111 110.606 118.415 110.868 118.731C111.751 119.764 112.387 120.918 112.92 122.087C113.96 124.438 114.505 126.88 114.906 129.299C115.297 131.722 115.523 134.136 115.697 136.529C115.877 138.921 116.039 141.293 116.262 143.624C116.481 145.953 116.776 148.253 117.302 150.426C117.56 151.513 117.882 152.566 118.277 153.554C118.682 154.566 119.172 155.64 119.686 156.565C119.944 157.032 120.222 157.467 120.499 157.84C120.574 157.941 120.65 158.036 120.724 158.125C120.841 158.263 121.072 158.278 121.209 158.154C121.279 158.09 121.353 158.021 121.432 157.944C121.744 157.637 122.071 157.262 122.395 156.859C123.042 156.039 123.669 155.107 124.26 154.131C125.448 152.175 126.517 150.067 127.545 147.932C129.607 143.657 131.442 139.223 133.217 134.766C134.09 132.596 135.634 128.802 137.18 124.96C139.316 119.653 145.134 116.09 151.672 116.09Z" fill="url(#paint0_linear_72_463)" stroke="url(#paint1_linear_72_463)" stroke-width="0.167752" stroke-miterlimit="10"/>
<path d="M121.276 158.67C121.276 158.67 121.264 158.66 121.26 158.656C121.36 158.692 121.428 158.723 121.434 158.742C121.448 158.777 121.366 158.722 121.276 158.67Z" fill="url(#paint2_linear_72_463)" stroke="url(#paint3_linear_72_463)" stroke-width="0.167752" stroke-miterlimit="10"/>
<path d="M159.709 66.326C159.329 61.3107 158.583 56.2619 156.945 51.1425C156.101 48.5828 155.061 45.9895 153.386 43.3811C152.544 42.0778 151.543 40.761 150.204 39.4778C148.877 38.208 147.156 36.9315 144.873 36.0396C143.733 35.603 142.473 35.2721 141.173 35.126C139.875 34.9765 138.558 35 137.343 35.1663C134.884 35.5005 132.863 36.3185 131.196 37.2103C130.357 37.6621 129.595 38.1408 128.89 38.6329C128.54 38.8798 128.198 39.1301 127.871 39.382L127.391 39.7633L126.955 40.1143L124.066 42.4406C120.179 45.4806 116.096 48.2855 111.818 50.5849C109.668 51.6917 107.495 52.7247 105.318 53.5157C104.233 53.8987 103.143 54.2514 102.107 54.4899C101.583 54.626 101.096 54.7099 100.619 54.7956C100.612 54.7956 100.604 54.7973 100.598 54.799C100.391 54.8208 100.143 54.8661 99.9725 54.8796L99.7184 54.9031C99.7008 54.9031 99.6852 54.9048 99.6676 54.9064C99.6637 54.9081 99.6422 54.9098 99.652 54.9115C99.7125 54.9115 99.7712 54.9148 99.8298 54.9199H99.0676C99.095 54.9182 99.1262 54.9165 99.1555 54.9165L98.878 54.9031C98.6591 54.8829 98.4109 54.8611 98.1607 54.8325L97.3614 54.7116C97.3614 54.7116 97.3497 54.7099 97.3438 54.7083L96.4995 54.5369C95.9269 54.416 95.3347 54.2497 94.7464 54.0952C94.7406 54.0952 94.7347 54.0918 94.7308 54.0902C94.1347 53.8953 93.5406 53.7358 92.9386 53.5225C90.5191 52.7146 88.0976 51.6161 85.7347 50.3867C81.0051 47.9126 76.4826 44.8793 72.1692 41.5856L70.4259 40.2638C69.7379 39.7499 69.007 39.251 68.2116 38.7791C66.6305 37.8418 64.7835 36.9869 62.5731 36.5099C60.3862 36.0145 57.7888 36.0447 55.5314 36.7048C53.2565 37.3464 51.4252 38.4834 50.0024 39.686C48.5699 40.897 47.4871 42.202 46.5744 43.5121C45.6637 44.8256 44.9386 46.1558 44.3132 47.4877C43.0839 50.1599 42.2552 52.8422 41.6298 55.5195C40.3809 60.874 39.9979 66.2201 40.0155 71.5176C40.0702 76.8167 40.5705 82.0738 41.4813 87.2603C42.3705 92.4486 43.6956 97.5579 45.3256 102.575C46.1347 105.082 47.0415 107.565 48.0578 110.01C48.6011 111.33 49.166 112.644 49.7581 113.946C49.9028 114.263 50.4559 114.115 50.3679 113.783C47.9914 104.881 46.5119 95.8732 46.0604 86.8791C45.8161 81.7983 45.8669 76.7276 46.3516 71.7174C46.8207 66.7156 47.7158 61.7541 49.2129 57.063C49.9692 54.725 50.8995 52.4509 52.0624 50.3917C53.1959 48.3443 54.6305 46.4564 56.1686 45.3395C56.9269 44.7802 57.6656 44.4493 58.2695 44.3385C58.8813 44.2243 59.4031 44.2595 60.1086 44.4477C60.8024 44.6374 61.6389 45.0338 62.4852 45.6049C62.9093 45.8887 63.3353 46.2095 63.7594 46.5623L65.3151 47.869C69.7419 51.6396 74.5438 55.1785 79.9399 58.2488C82.6409 59.7823 85.4806 61.2099 88.6037 62.3873C89.3718 62.693 90.1985 62.9449 90.9979 63.2221C91.8305 63.469 92.6572 63.7176 93.5327 63.9292L94.852 64.2298C94.852 64.2298 94.8637 64.2315 94.8695 64.2332L96.2611 64.4834C96.7516 64.5557 97.248 64.6178 97.7738 64.6732L98.6083 64.7337L99.1106 64.7488L99.3627 64.7539H99.392L99.5034 64.7555H99.7458L100.217 64.7505L100.999 64.7085C101.514 64.6749 101.944 64.6178 102.421 64.5674C103.307 64.4431 104.176 64.3037 104.986 64.1207C106.639 63.7797 108.165 63.3296 109.66 62.8442C112.627 61.8549 115.356 60.6389 117.978 59.3221C123.161 56.6415 127.823 53.5275 132.202 50.2254L135.419 47.6977L135.746 47.4407L136.029 47.219C136.219 47.0729 136.408 46.9385 136.594 46.8075C136.965 46.5522 137.327 46.3305 137.667 46.1524C138.345 45.788 138.916 45.6217 139.205 45.5948C139.504 45.5679 139.537 45.5847 139.78 45.6637C139.789 45.667 139.801 45.6704 139.811 45.6754C140.061 45.7796 140.516 46.05 141.019 46.5438C141.531 47.0393 142.07 47.7212 142.565 48.5022C143.557 50.0743 144.414 51.994 145.076 54.0129C146.413 58.0775 147.14 62.5267 147.498 67.0079C147.869 71.5008 147.892 76.0692 147.617 80.6394C147.386 84.3513 146.985 88.0665 146.425 91.7717C146.399 91.9413 146.557 92.0891 146.755 92.0807C153.562 91.8187 159.089 87.2183 159.546 81.3767C159.55 81.3381 159.552 81.2995 159.556 81.2608C159.947 76.3212 160.049 71.3429 159.705 66.3276L159.709 66.326Z" fill="url(#paint4_linear_72_463)" stroke="url(#paint5_linear_72_463)" stroke-width="0.167752" stroke-miterlimit="10"/>
<path d="M91.8813 122.135C90.4605 123.289 89.3113 124.683 88.4494 126.168C87.568 127.651 86.9601 129.221 86.5145 130.802C86.2702 131.593 86.1315 132.389 85.9556 133.187C85.8344 133.983 85.6976 134.784 85.637 135.58C85.4533 137.178 85.4592 138.767 85.4904 140.349L85.551 142.583C85.5647 143.315 85.5588 144.046 85.5432 144.774C85.5158 146.232 85.4377 147.683 85.2774 149.118C85.1347 150.554 84.9178 151.977 84.5973 153.361C84.3041 154.748 83.882 156.095 83.3484 157.341C82.8305 158.574 82.0781 159.719 81.3334 160.349C80.9562 160.653 80.6709 160.784 80.4266 160.821C80.1823 160.878 79.7758 160.828 79.2696 160.578C78.7732 160.339 78.222 159.943 77.71 159.473C77.194 159.002 76.7093 158.456 76.2403 157.882C75.3119 156.726 74.4715 155.443 73.6976 154.12C72.9139 152.796 72.2025 151.422 71.493 150.033C70.7914 148.641 70.1269 147.225 69.4272 145.804C69.5211 147.344 69.7263 148.874 70.0057 150.401C70.2755 151.931 70.6566 153.45 71.1354 154.965C71.6299 156.474 72.2279 157.979 73.0624 159.459C73.4709 160.201 73.9556 160.932 74.5458 161.649C75.138 162.361 75.822 163.079 76.7914 163.695C77.7276 164.305 79.0487 164.857 80.5849 164.851C81.3354 164.851 82.0976 164.715 82.7504 164.479C83.4051 164.248 83.9895 163.944 84.4839 163.609C85.4748 162.937 86.1921 162.178 86.7862 161.412C87.3784 160.643 87.8455 159.862 88.254 159.078C89.8253 155.93 90.4839 152.732 90.8435 149.555C90.994 147.964 91.0702 146.377 91.0566 144.796C91.039 144.007 91.0116 143.217 90.9628 142.431L90.8787 141.252L90.7751 140.112C90.5113 137.211 90.4175 134.306 90.822 131.497C91.2012 128.692 92.0728 125.946 93.9276 123.699C94.8403 122.569 96.0305 121.593 97.4474 120.83C98.1549 120.447 98.925 120.132 99.736 119.881C100.545 119.618 101.397 119.433 102.287 119.337C98.753 118.69 94.7035 119.807 91.8833 122.14L91.8813 122.135Z" fill="url(#paint6_linear_72_463)" stroke="url(#paint7_linear_72_463)" stroke-width="0.167752" stroke-miterlimit="10"/>
<path d="M81.437 65.8288C82.6057 66.3915 83.749 67.0012 84.8748 67.6428C86.0122 68.2726 87.1145 68.9495 88.2051 69.6516C86.4383 67.8628 84.437 66.2437 82.2891 64.7539C80.1373 63.2674 77.794 61.9523 75.2064 60.9076C72.6168 59.91 69.6871 59.1827 66.5151 59.4329C64.9419 59.5556 63.349 59.9822 61.936 60.6742C60.5249 61.3645 59.2741 62.2849 58.2891 63.3279C56.3151 65.4173 55.0643 67.7973 54.2122 70.1705C53.3386 72.5505 52.8226 74.9607 52.4552 77.3575C52.1073 79.7559 51.949 82.1527 51.863 84.5377C51.82 86.9211 51.8533 89.2994 51.9803 91.6642C52.5178 101.125 54.1849 110.43 56.4031 119.599C58.6604 128.763 61.4513 137.809 64.977 146.671C63.6969 137.369 62.0454 128.175 60.6637 118.976C59.2565 109.785 57.994 100.596 57.4682 91.4475C57.2005 86.8774 57.1829 82.3123 57.6246 77.8446C57.8591 75.6158 58.25 73.4189 58.8559 71.316C59.4676 69.2165 60.3725 67.2296 61.6839 65.6037C63.005 63.9863 64.8031 62.8761 67.0292 62.4797C69.2572 62.0665 71.7998 62.3941 74.2389 63.0592C76.7093 63.7008 79.1054 64.7085 81.437 65.8305V65.8288Z" fill="url(#paint8_linear_72_463)" stroke="url(#paint9_linear_72_463)" stroke-width="0.167752" stroke-miterlimit="10"/>
<path d="M100.561 104.871C99.7426 104.871 98.9655 104.59 98.3929 104.097L86.8178 94.15C85.6317 93.1307 85.6317 91.4435 86.8178 90.4241C88.004 89.4048 89.9672 89.4048 91.1534 90.4241L100.561 98.5086L121.584 80.4415C122.77 79.4222 124.733 79.4222 125.919 80.4415C127.106 81.4609 127.106 83.1481 125.919 84.1674L102.728 104.097C102.156 104.59 101.379 104.871 100.561 104.871Z" fill="url(#paint10_linear_72_463)"/>
</g>
<defs>
<linearGradient id="paint0_linear_72_463" x1="149.608" y1="86.5986" x2="104.185" y2="180.867" gradientUnits="userSpaceOnUse">
<stop offset="0.01" stop-color="#003157"/>
<stop offset="0.15" stop-color="#40B9E4"/>
<stop offset="0.27" stop-color="#026BB8"/>
<stop offset="0.51" stop-color="#5DDEF8"/>
<stop offset="0.8" stop-color="#026BB8"/>
<stop offset="0.91" stop-color="#38AFDE"/>
<stop offset="0.99" stop-color="#003157"/>
</linearGradient>
<linearGradient id="paint1_linear_72_463" x1="103.134" y1="139.759" x2="151.811" y2="139.759" gradientUnits="userSpaceOnUse">
<stop stop-color="#003157"/>
<stop offset="0.09" stop-color="#38AFDE"/>
<stop offset="0.2" stop-color="#026BB8"/>
<stop offset="0.49" stop-color="#5DDEF8"/>
<stop offset="0.73" stop-color="#026BB8"/>
<stop offset="0.85" stop-color="#40B9E4"/>
<stop offset="0.99" stop-color="#003157"/>
</linearGradient>
<linearGradient id="paint2_linear_72_463" x1="163.892" y1="93.4955" x2="118.476" y2="187.747" gradientUnits="userSpaceOnUse">
<stop offset="0.01" stop-color="#003157"/>
<stop offset="0.15" stop-color="#40B9E4"/>
<stop offset="0.27" stop-color="#026BB8"/>
<stop offset="0.51" stop-color="#5DDEF8"/>
<stop offset="0.8" stop-color="#026BB8"/>
<stop offset="0.91" stop-color="#38AFDE"/>
<stop offset="0.99" stop-color="#003157"/>
</linearGradient>
<linearGradient id="paint3_linear_72_463" x1="120.846" y1="158.629" x2="121.534" y2="158.629" gradientUnits="userSpaceOnUse">
<stop stop-color="#003157"/>
<stop offset="0.09" stop-color="#38AFDE"/>
<stop offset="0.2" stop-color="#026BB8"/>
<stop offset="0.49" stop-color="#5DDEF8"/>
<stop offset="0.73" stop-color="#026BB8"/>
<stop offset="0.85" stop-color="#40B9E4"/>
<stop offset="0.99" stop-color="#003157"/>
</linearGradient>
<linearGradient id="paint4_linear_72_463" x1="91.6116" y1="19.4436" x2="104.402" y2="128.252" gradientUnits="userSpaceOnUse">
<stop stop-color="#B57E10"/>
<stop offset="0.03" stop-color="#C6962B"/>
<stop offset="0.06" stop-color="#DCB64D"/>
<stop offset="0.1" stop-color="#ECCC66"/>
<stop offset="0.13" stop-color="#F5DA75"/>
<stop offset="0.16" stop-color="#F9DF7B"/>
<stop offset="0.23" stop-color="#E5C35C"/>
<stop offset="0.37" stop-color="#B57E10"/>
<stop offset="0.45" stop-color="#B98416"/>
<stop offset="0.56" stop-color="#C59529"/>
<stop offset="0.69" stop-color="#D9B149"/>
<stop offset="0.83" stop-color="#F4D874"/>
<stop offset="0.86" stop-color="#F9DF7B"/>
<stop offset="1" stop-color="#FFF3A6"/>
</linearGradient>
<linearGradient id="paint5_linear_72_463" x1="39.9197" y1="74.5744" x2="160.015" y2="74.5744" gradientUnits="userSpaceOnUse">
<stop stop-color="#FFF3A6"/>
<stop offset="0.14" stop-color="#F9DF7B"/>
<stop offset="0.17" stop-color="#F4D874"/>
<stop offset="0.31" stop-color="#D9B149"/>
<stop offset="0.44" stop-color="#C59529"/>
<stop offset="0.55" stop-color="#B98416"/>
<stop offset="0.63" stop-color="#B57E10"/>
<stop offset="0.77" stop-color="#E5C35C"/>
<stop offset="0.84" stop-color="#F9DF7B"/>
<stop offset="0.87" stop-color="#F5DA75"/>
<stop offset="0.9" stop-color="#ECCC66"/>
<stop offset="0.94" stop-color="#DCB64D"/>
<stop offset="0.97" stop-color="#C6962B"/>
<stop offset="1" stop-color="#B57E10"/>
</linearGradient>
<linearGradient id="paint6_linear_72_463" x1="20.1706" y1="61.3158" x2="116.921" y2="213.302" gradientUnits="userSpaceOnUse">
<stop offset="0.01" stop-color="#003157"/>
<stop offset="0.15" stop-color="#40B9E4"/>
<stop offset="0.27" stop-color="#026BB8"/>
<stop offset="0.51" stop-color="#5DDEF8"/>
<stop offset="0.8" stop-color="#026BB8"/>
<stop offset="0.91" stop-color="#38AFDE"/>
<stop offset="0.99" stop-color="#003157"/>
</linearGradient>
<linearGradient id="paint7_linear_72_463" x1="69.3022" y1="142" x2="102.873" y2="142" gradientUnits="userSpaceOnUse">
<stop stop-color="#003157"/>
<stop offset="0.09" stop-color="#38AFDE"/>
<stop offset="0.2" stop-color="#026BB8"/>
<stop offset="0.49" stop-color="#5DDEF8"/>
<stop offset="0.73" stop-color="#026BB8"/>
<stop offset="0.85" stop-color="#40B9E4"/>
<stop offset="0.99" stop-color="#003157"/>
</linearGradient>
<linearGradient id="paint8_linear_72_463" x1="30.523" y1="54.715" x2="127.28" y2="206.709" gradientUnits="userSpaceOnUse">
<stop offset="0.01" stop-color="#003157"/>
<stop offset="0.15" stop-color="#40B9E4"/>
<stop offset="0.27" stop-color="#026BB8"/>
<stop offset="0.51" stop-color="#5DDEF8"/>
<stop offset="0.8" stop-color="#026BB8"/>
<stop offset="0.91" stop-color="#38AFDE"/>
<stop offset="0.99" stop-color="#003157"/>
</linearGradient>
<linearGradient id="paint9_linear_72_463" x1="51.7458" y1="103.371" x2="88.8422" y2="103.371" gradientUnits="userSpaceOnUse">
<stop stop-color="#003157"/>
<stop offset="0.09" stop-color="#38AFDE"/>
<stop offset="0.2" stop-color="#026BB8"/>
<stop offset="0.49" stop-color="#5DDEF8"/>
<stop offset="0.73" stop-color="#026BB8"/>
<stop offset="0.85" stop-color="#40B9E4"/>
<stop offset="0.99" stop-color="#003157"/>
</linearGradient>
<linearGradient id="paint10_linear_72_463" x1="106.369" y1="79.677" x2="106.369" y2="104.871" gradientUnits="userSpaceOnUse">
<stop stop-color="#107DC2"/>
<stop offset="1" stop-color="#52CFF0"/>
</linearGradient>
<clipPath id="clip0_72_463">
<rect width="120" height="130" fill="white" transform="translate(40 35)"/>
</clipPath>
</defs>
</svg>
